<?xml version="1.0" encoding="UTF-8"?>
<svg width="60px" height="60px" viewBox="0 0 60 60" version="1.1" xmlns="http://www.w3.org/2000/svg" xmlns:xlink="http://www.w3.org/1999/xlink">
    <title>screwdriver-icon</title>
    <g id="screwdriver-icon" stroke="none" stroke-width="1" fill="none" fill-rule="evenodd">
        <g id="Screwdriver" transform="translate(29.000000, 31.000000) rotate(45.000000) translate(-29.000000, -31.000000) translate(7.000000, -5.000000)">
            <g transform="translate(21.920310, 49.819063) rotate(-45.000000) translate(-21.920310, -49.819063) translate(6.420310, 34.319063)" fill="#E94F3D" fill-rule="nonzero" id="Path">
                <path d="M11.6155156,29.0408354 L30.4633831,7.50193579 L23.7129974,0.774355428 L2.15129238,19.6222229 C-0.0608272604,21.5834836 -0.174854046,23.6359658 1.8776281,25.6884479 L5.52648524,29.3144997 C7.55616203,31.3441765 9.65425488,31.2301497 11.6155156,29.0408354 Z"></path>
            </g>
            <polygon id="Path-2" fill="#C7C7CC" points="19.6818547 38.2330649 19.6818547 14.0116114 24.3523918 14.0116114 24.3523918 38.2330649"></polygon>
            <rect id="Rectangle" fill="#E94F3D" x="13.4544718" y="33.4721829" width="16.6063543" height="6.22738286" rx="3.11369143"></rect>
            <path d="M20.2638366,0 L23.7703864,0 C24.1158759,-4.81426593e-06 24.420027,0.227714457 24.5173143,0.559223443 C25.9642117,5.4895651 26.6876604,8.61467434 26.6876604,9.93455117 C26.6876604,11.303658 25.9092375,12.9221523 24.3523918,14.7900343 L19.6818547,14.7900343 C18.125009,12.9221523 17.3465861,11.303658 17.3465861,9.93455117 C17.3465861,8.61468009 18.0700285,5.48959233 19.5169133,0.559287881 C19.6141474,0.227736366 19.9183212,6.34701466e-17 20.2638366,0 Z" id="Rectangle" fill="#C7C7CC"></path>
        </g>
    </g>
</svg>